<mxfile host="app.diagrams.net" agent="Mozilla/5.0 (Windows NT 10.0; Win64; x64) AppleWebKit/537.36 (KHTML, like Gecko) Chrome/134.0.0.0 Safari/537.36" version="26.2.2">
  <diagram name="Страница — 1" id="iUzFiTQ4OiCmS6fU6i5m">
    <mxGraphModel dx="635" dy="1076" grid="0" gridSize="10" guides="1" tooltips="1" connect="1" arrows="1" fold="1" page="0" pageScale="1" pageWidth="827" pageHeight="1169" math="0" shadow="0">
      <root>
        <mxCell id="0" />
        <mxCell id="1" parent="0" />
        <mxCell id="2u1xvY0-iIe1CVhHfyiw-1" value="" style="image;aspect=fixed;perimeter=ellipsePerimeter;html=1;align=center;shadow=0;dashed=0;fontColor=#4277BB;labelBackgroundColor=default;fontSize=12;spacingTop=3;image=img/lib/ibm/infrastructure/mobile_backend.svg;" vertex="1" parent="1">
          <mxGeometry x="21" y="-80" width="60" height="60" as="geometry" />
        </mxCell>
        <mxCell id="2u1xvY0-iIe1CVhHfyiw-2" value="" style="strokeColor=#dddddd;shadow=1;strokeWidth=1;rounded=1;absoluteArcSize=1;arcSize=2;" vertex="1" parent="1">
          <mxGeometry x="247" y="-67" width="150" height="44" as="geometry" />
        </mxCell>
        <mxCell id="2u1xvY0-iIe1CVhHfyiw-3" value="Frontend&#xa;Platform Services" style="sketch=0;dashed=0;connectable=0;html=1;fillColor=#757575;strokeColor=none;shape=mxgraph.gcp2.frontend_platform_services;part=1;labelPosition=right;verticalLabelPosition=middle;align=left;verticalAlign=middle;spacingLeft=5;fontSize=12;" vertex="1" parent="2u1xvY0-iIe1CVhHfyiw-2">
          <mxGeometry y="0.5" width="32" height="32" relative="1" as="geometry">
            <mxPoint x="5" y="-16" as="offset" />
          </mxGeometry>
        </mxCell>
        <mxCell id="2u1xvY0-iIe1CVhHfyiw-4" value="база данных sql" style="strokeWidth=2;html=1;shape=mxgraph.flowchart.database;whiteSpace=wrap;" vertex="1" parent="1">
          <mxGeometry x="55" y="77" width="90" height="102" as="geometry" />
        </mxCell>
        <mxCell id="2u1xvY0-iIe1CVhHfyiw-6" value="" style="endArrow=classic;startArrow=classic;html=1;rounded=0;fontSize=12;startSize=8;endSize=8;curved=1;entryX=0.171;entryY=0.055;entryDx=0;entryDy=0;entryPerimeter=0;exitX=0.816;exitY=0.043;exitDx=0;exitDy=0;exitPerimeter=0;" edge="1" parent="1" source="2u1xvY0-iIe1CVhHfyiw-1" target="2u1xvY0-iIe1CVhHfyiw-2">
          <mxGeometry width="50" height="50" relative="1" as="geometry">
            <mxPoint x="77" y="85" as="sourcePoint" />
            <mxPoint x="127" y="35" as="targetPoint" />
            <Array as="points">
              <mxPoint x="190" y="-129" />
            </Array>
          </mxGeometry>
        </mxCell>
        <mxCell id="2u1xvY0-iIe1CVhHfyiw-7" value="" style="endArrow=classic;startArrow=classic;html=1;rounded=0;fontSize=12;startSize=8;endSize=8;curved=1;exitX=0.869;exitY=0.069;exitDx=0;exitDy=0;exitPerimeter=0;entryX=0.355;entryY=0.959;entryDx=0;entryDy=0;entryPerimeter=0;" edge="1" parent="1" source="2u1xvY0-iIe1CVhHfyiw-4" target="2u1xvY0-iIe1CVhHfyiw-2">
          <mxGeometry width="50" height="50" relative="1" as="geometry">
            <mxPoint x="148" y="85" as="sourcePoint" />
            <mxPoint x="198" y="35" as="targetPoint" />
            <Array as="points">
              <mxPoint x="261" y="62" />
            </Array>
          </mxGeometry>
        </mxCell>
      </root>
    </mxGraphModel>
  </diagram>
</mxfile>
